# xmcd CD database file
#
# Track frame offsets:
#	150
#	14535
#	30885
#	61840
#	80392
#	99482
#	126902
#	147122
#	173625
#	204297
#	226605
#
# Disc length: 3356 seconds
#
# Revision: 0
# Processed by: cddbd v1.5.2PL0 Copyright (c) Steve Scherf et al.
# Submitted via: CDex 1.51
#
DISCID=7a0d1a0b
DTITLE=Paul Desmond - Take Ten
DYEAR=1963
DGENRE=Jazz
TTITLE0=Take Ten
TTITLE1=El Prince
TTITLE2=Alone Together
TTITLE3=Embarcadero
TTITLE4=The Theme From Black Orpheus
TTITLE5=Nancy
TTITLE6=Samba De Orpheu
TTITLE7=The One I Love Belongs To Somebody Else
TTITLE8=Out of Nowhere
TTITLE9=Embarcadero [alternate take]
TTITLE10=El Prince [alternate take]
EXTD=YEAR: 1963
EXTT0=
EXTT1=
EXTT2=
EXTT3=
EXTT4=
EXTT5=
EXTT6=
EXTT7=
EXTT8=
EXTT9=
EXTT10=
PLAYORDER=
